# xmcd
# Track frame offsets:
# 150
# 15932
# 28499
# 43741
# 61706
# 75269
# 89668
# 101664
#
# Disc length: 1525 seconds
# Revision: 0
# Processed by: cddbd v1.4PL0 Copyright (c) Steve Scherf et al.
# Submitted via: VisiTrax 2.9.5.181 - For more info visit www.synapsa.com
#
DISCID=5805f308
DTITLE=Don Williams - Don Williams
DYEAR=1900
DGENRE=Misc
TTITLE0=Til The Rivers All Run
TTITLE1=You Keep Coming 'Round
TTITLE2=Don't You Think It`s Ti, Don
TTITLE3=Where The Arkansas Rive
TTITLE4=Say It Again
TTITLE5=Maybe I Just Don't Know
TTITLE6=Magic Carpet
TTITLE7=She Never Knew Me
EXTD=
EXTT0=
EXTT1=
EXTT2=
EXTT3=
EXTT4=
EXTT5=
EXTT6=
EXTT7=
PLAYORDER=
